<svg xmlns="http://www.w3.org/2000/svg" xmlns:xlink="http://www.w3.org/1999/xlink" viewBox="0 0 126.71 93.14"><defs><style>.a{fill:none;}.b{fill:#fcea10;}.c{fill:#706f6f;}.d{fill:#575756;}.e{clip-path:url(#a);}.f{fill:#fff;}</style><clipPath id="a" transform="translate(-90.03 -116.89)"><polygon class="a" points="175.95 140.36 163.22 135.17 150.49 140.36 152.92 129.37 142.62 121.58 156.86 119.97 163.22 109.97 169.59 119.97 183.82 121.58 173.52 129.37 175.95 140.36"/></clipPath></defs><circle class="b" cx="37.81" cy="35.2" r="19.48"/><polygon class="c" points="73.19 0.04 24.57 75.04 121.81 75.04 73.19 0.04"/><path class="d" d="M11.48,41.52H77.35a49.35,49.35,0,0,1,49.35,49.35v0a2.26,2.26,0,0,1-2.26,2.26H2.26A2.26,2.26,0,0,1,0,90.88V53A11.48,11.48,0,0,1,11.48,41.52Z"/><g class="e"><polygon class="f" points="73.19 0 24.57 75 121.81 75 73.19 0"/></g></svg>